<svg width="82" height="92" viewBox="0 0 82 92" fill="none" xmlns="http://www.w3.org/2000/svg">
<path d="M41.0023 68.4978V90.9963M3.50483 23.5007L21.0037 35.9999M61.001 35.9999L80.9997 23.5007M76 20.221C77.5324 21.1097 78.8022 22.3884 79.6804 23.9269C80.5585 25.4654 81.0137 27.2089 80.9997 28.9804V61.7532C80.9997 65.393 79.0298 68.7477 75.85 70.5176L45.852 89.7363C44.3669 90.5611 42.6961 90.9939 40.9973 90.9939C39.2986 90.9939 37.6278 90.5611 36.1427 89.7363L6.14466 70.5176C4.58527 69.6474 3.28635 68.3769 2.38197 66.837C1.47759 65.2972 1.00052 63.544 1 61.7582V28.9804C1 25.3356 2.96987 21.9808 6.14466 20.216L36.1427 2.30215C37.6707 1.44829 39.3919 1 41.1423 1C42.8927 1 44.614 1.44829 46.142 2.30215L76.14 20.221H75.99H76Z" stroke="#01AEE7" stroke-width="2" stroke-linecap="round" stroke-linejoin="round"/>
<path d="M41.0022 23.501V45.9995M41.0022 45.9995L21.0035 55.9988M41.0022 45.9995L61.0009 55.9988" stroke="#01AEE7" stroke-width="2" stroke-linecap="round" stroke-linejoin="round"/>
<path d="M41.0022 68.498L61.0009 55.9988V36.0001L41.0022 23.501L21.0035 36.0001V55.9988L41.0022 68.498Z" stroke="#01AEE7" stroke-width="2" stroke-linecap="round" stroke-linejoin="round"/>
</svg>
