<svg width="50" height="57" viewBox="0 0 50 57" fill="none" xmlns="http://www.w3.org/2000/svg">
<path d="M25.0014 41.5491V55.0482M2.5029 14.5509L13.0022 22.0504M37.0006 22.0504L48.9998 14.5509M46 12.583C46.9195 13.1163 47.6813 13.8834 48.2082 14.8065C48.7351 15.7296 49.0082 16.7758 48.9998 17.8386V37.5023C48.9998 39.6862 47.8179 41.6991 45.91 42.761L27.9112 54.2922C27.0201 54.7871 26.0177 55.0467 24.9984 55.0467C23.9791 55.0467 22.9767 54.7871 22.0856 54.2922L4.08679 42.761C3.15116 42.2389 2.37181 41.4765 1.82918 40.5526C1.28656 39.6287 1.00031 38.5768 1 37.5053V17.8386C1 15.6518 2.18192 13.6389 4.08679 12.58L22.0856 1.8317C23.0024 1.31939 24.0352 1.05042 25.0854 1.05042C26.1356 1.05042 27.1684 1.31939 28.0852 1.8317L46.084 12.583H45.994H46Z" stroke="#01AEE7" stroke-width="2" stroke-linecap="round" stroke-linejoin="round"/>
<path d="M25.0013 14.551V28.0501M25.0013 28.0501L13.0021 34.0497M25.0013 28.0501L37.0005 34.0497" stroke="#01AEE7" stroke-width="2" stroke-linecap="round" stroke-linejoin="round"/>
<path d="M25.0013 41.5492L37.0005 34.0497V22.0505L25.0013 14.551L13.0021 22.0505V34.0497L25.0013 41.5492Z" stroke="#01AEE7" stroke-width="2" stroke-linecap="round" stroke-linejoin="round"/>
</svg>
