<svg width="25" height="25" viewBox="0 0 25 25" fill="none" xmlns="http://www.w3.org/2000/svg">
<g clip-path="url(#clip0_26_60)">
<path d="M12.5797 3.12354H12.7188C14.0031 3.12822 20.5109 3.1751 22.2656 3.64697C22.7961 3.79099 23.2795 4.0717 23.6674 4.46105C24.0554 4.8504 24.3344 5.33476 24.4766 5.86572C24.6344 6.45947 24.7453 7.24541 24.8203 8.05635L24.8359 8.21885L24.8703 8.6251L24.8828 8.7876C24.9844 10.2157 24.9969 11.5532 24.9984 11.8454V11.9626C24.9969 12.2657 24.9828 13.6938 24.8703 15.1813L24.8578 15.3454L24.8438 15.5079C24.7656 16.4017 24.65 17.2892 24.4766 17.9423C24.3349 18.4735 24.056 18.958 23.6679 19.3475C23.2799 19.7369 22.7963 20.0175 22.2656 20.161C20.4531 20.6485 13.5641 20.6829 12.6094 20.6845H12.3875C11.9047 20.6845 9.90781 20.6751 7.81406 20.6032L7.54844 20.5938L7.4125 20.5876L7.14531 20.5767L6.87812 20.5657C5.14375 20.4892 3.49219 20.3657 2.73125 20.1595C2.20077 20.016 1.71729 19.7357 1.32926 19.3466C0.941224 18.9574 0.662261 18.4732 0.520312 17.9423C0.346875 17.2907 0.23125 16.4017 0.153125 15.5079L0.140625 15.3438L0.128125 15.1813C0.0510119 14.1226 0.00828104 13.0616 0 12.0001L0 11.8079C0.003125 11.472 0.015625 10.311 0.1 9.02978L0.110938 8.86885L0.115625 8.7876L0.128125 8.6251L0.1625 8.21885L0.178125 8.05635C0.253125 7.24541 0.364062 6.45791 0.521875 5.86572C0.663584 5.33455 0.942441 4.84996 1.33049 4.46054C1.71854 4.07112 2.20214 3.79055 2.73281 3.64697C3.49375 3.44385 5.14531 3.31885 6.87969 3.24072L7.14531 3.22979L7.41406 3.22041L7.54844 3.21572L7.81562 3.20479C9.30267 3.15693 10.7903 3.13037 12.2781 3.1251H12.5797V3.12354ZM10 8.13916V15.6673L16.4953 11.9048L10 8.13916Z" fill="white"/>
</g>
<defs>
<clipPath id="clip0_26_60">
<rect width="25" height="25" fill="white"/>
</clipPath>
</defs>
</svg>
