<svg width="80" height="59" viewBox="0 0 80 59" fill="none" xmlns="http://www.w3.org/2000/svg">
<path d="M7.27273 0H58.1818V14.5455H69.0909L80 29.0909V47.2727H72.7273C72.7273 50.166 71.5779 52.9408 69.5321 54.9866C67.4862 57.0325 64.7115 58.1818 61.8182 58.1818C58.9249 58.1818 56.1501 57.0325 54.1043 54.9866C52.0584 52.9408 50.9091 50.166 50.9091 47.2727H29.0909C29.0909 50.166 27.9416 52.9408 25.8957 54.9866C23.8499 57.0325 21.0751 58.1818 18.1818 58.1818C15.2885 58.1818 12.5138 57.0325 10.4679 54.9866C8.42208 52.9408 7.27273 50.166 7.27273 47.2727H0V7.27273C0 5.34388 0.766232 3.49403 2.13013 2.13013C3.49403 0.766231 5.34388 0 7.27273 0ZM58.1818 20V29.0909H74.4364L67.2727 20H58.1818ZM18.1818 41.8182C16.7352 41.8182 15.3478 42.3929 14.3249 43.4158C13.3019 44.4387 12.7273 45.8261 12.7273 47.2727C12.7273 48.7194 13.3019 50.1067 14.3249 51.1297C15.3478 52.1526 16.7352 52.7273 18.1818 52.7273C19.6285 52.7273 21.0158 52.1526 22.0388 51.1297C23.0617 50.1067 23.6364 48.7194 23.6364 47.2727C23.6364 45.8261 23.0617 44.4387 22.0388 43.4158C21.0158 42.3929 19.6285 41.8182 18.1818 41.8182ZM61.8182 41.8182C60.3715 41.8182 58.9842 42.3929 57.9612 43.4158C56.9383 44.4387 56.3636 45.8261 56.3636 47.2727C56.3636 48.7194 56.9383 50.1067 57.9612 51.1297C58.9842 52.1526 60.3715 52.7273 61.8182 52.7273C63.2648 52.7273 64.6522 52.1526 65.6751 51.1297C66.6981 50.1067 67.2727 48.7194 67.2727 47.2727C67.2727 45.8261 66.6981 44.4387 65.6751 43.4158C64.6522 42.3929 63.2648 41.8182 61.8182 41.8182ZM25.4545 36.3636L47.2727 14.5455L42.1455 9.38182L25.4545 26.0727L17.8545 18.4727L12.7273 23.6364L25.4545 36.3636Z" fill="#01AEE7"/>
</svg>
