<svg width="100" height="100" viewBox="0 0 100 100" fill="none" xmlns="http://www.w3.org/2000/svg">
<path fill-rule="evenodd" clip-rule="evenodd" d="M83.3333 69.0476V21.4286C83.3333 18.9027 82.3299 16.4803 80.5439 14.6942C78.7578 12.9082 76.3354 11.9048 73.8095 11.9048H35.7143C33.1884 11.9048 30.766 12.9082 28.9799 14.6942C27.1939 16.4803 26.1905 18.9027 26.1905 21.4286V69.0476C26.1905 71.5735 27.1939 73.9959 28.9799 75.782C30.766 77.5681 33.1884 78.5715 35.7143 78.5715H73.8095C76.3354 78.5715 78.7578 77.5681 80.5439 75.782C82.3299 73.9959 83.3333 71.5735 83.3333 69.0476Z" stroke="#01AEE7" stroke-linecap="round" stroke-linejoin="round"/>
<path d="M25.2619 23.5L15.719 26.9762C13.3463 27.8404 11.4139 29.6116 10.3468 31.9004C9.27968 34.1891 9.16521 36.8079 10.0286 39.181L26.3143 83.9286C26.7422 85.104 27.3975 86.1836 28.2427 87.1058C29.0879 88.0279 30.1065 88.7745 31.2403 89.303C32.3741 89.8314 33.6009 90.1313 34.8506 90.1855C36.1003 90.2398 37.3485 90.0473 38.5238 89.6191L65.0381 79.1524M40.4762 35.7143H64.2857M40.4762 45.2381H69.0476M40.4762 54.7619H54.7619" stroke="#01AEE7" stroke-linecap="round" stroke-linejoin="round"/>
</svg>
