<svg width="25" height="25" viewBox="0 0 25 25" fill="none" xmlns="http://www.w3.org/2000/svg">
<path d="M13.5709 2.08429C14.331 2.08137 15.0911 2.08901 15.8511 2.10721L16.0532 2.1145C16.2865 2.12283 16.5167 2.13325 16.7948 2.14575C17.9032 2.19783 18.6594 2.37283 19.3229 2.63012C20.0104 2.89471 20.5896 3.25304 21.1688 3.83221C21.6983 4.35263 22.1082 4.98215 22.3698 5.677C22.6271 6.34054 22.8021 7.09783 22.8542 8.20616C22.8667 8.48325 22.8771 8.7145 22.8854 8.94783L22.8917 9.14992C22.9102 9.90949 22.9182 10.6693 22.9157 11.4291L22.9167 12.2062V13.5707C22.9193 14.3309 22.9113 15.091 22.8927 15.851L22.8865 16.053C22.8782 16.2864 22.8677 16.5166 22.8552 16.7947C22.8032 17.903 22.6261 18.6593 22.3698 19.3228C22.109 20.0184 21.6991 20.6485 21.1688 21.1687C20.6479 21.6982 20.0181 22.108 19.3229 22.3697C18.6594 22.627 17.9032 22.802 16.7948 22.8541C16.5167 22.8666 16.2865 22.877 16.0532 22.8853L15.8511 22.8916C15.0912 22.9101 14.331 22.9181 13.5709 22.9155L12.7938 22.9166H11.4302C10.6701 22.9192 9.90995 22.9112 9.15003 22.8926L8.94795 22.8864C8.70067 22.8774 8.45344 22.867 8.20628 22.8551C7.09795 22.803 6.3417 22.626 5.67711 22.3697C4.98199 22.1086 4.35236 21.6987 3.83232 21.1687C3.30216 20.6481 2.89193 20.0182 2.63024 19.3228C2.37295 18.6593 2.19795 17.903 2.14586 16.7947C2.13426 16.5475 2.12385 16.3003 2.11461 16.053L2.10941 15.851C2.0902 15.091 2.08152 14.3309 2.08336 13.5707V11.4291C2.08046 10.6693 2.0881 9.90949 2.10628 9.14992L2.11357 8.94783C2.12191 8.7145 2.13232 8.48325 2.14482 8.20616C2.19691 7.09679 2.37191 6.34158 2.6292 5.677C2.89104 4.98181 3.30208 4.35246 3.83336 3.83325C4.35305 3.30278 4.98228 2.89218 5.67711 2.63012C6.3417 2.37283 7.09691 2.19783 8.20628 2.14575L8.94795 2.1145L9.15003 2.10929C9.9096 2.09009 10.6694 2.08141 11.4292 2.08325L13.5709 2.08429ZM12.5 7.29262C11.8099 7.28286 11.1248 7.41036 10.4844 7.66769C9.84399 7.92503 9.26112 8.30708 8.76966 8.79164C8.2782 9.2762 7.88795 9.8536 7.62158 10.4903C7.35521 11.127 7.21804 11.8103 7.21804 12.5004C7.21804 13.1906 7.35521 13.8739 7.62158 14.5106C7.88795 15.1473 8.2782 15.7247 8.76966 16.2092C9.26112 16.6938 9.84399 17.0758 10.4844 17.3332C11.1248 17.5905 11.8099 17.718 12.5 17.7082C13.8814 17.7082 15.2061 17.1595 16.1829 16.1828C17.1596 15.206 17.7084 13.8813 17.7084 12.4999C17.7084 11.1186 17.1596 9.79382 16.1829 8.81707C15.2061 7.84031 13.8814 7.29262 12.5 7.29262ZM12.5 9.37596C12.9151 9.36831 13.3276 9.44345 13.7134 9.59701C14.0991 9.75056 14.4504 9.97944 14.7467 10.2703C15.043 10.5611 15.2783 10.9081 15.439 11.2909C15.5997 11.6737 15.6825 12.0847 15.6826 12.4999C15.6827 12.9151 15.6 13.3261 15.4394 13.709C15.2789 14.0919 15.0436 14.4389 14.7474 14.7298C14.4512 15.0208 14.1 15.2498 13.7143 15.4035C13.3286 15.5571 12.9162 15.6324 12.5011 15.6249C11.6723 15.6249 10.8774 15.2957 10.2914 14.7096C9.70531 14.1236 9.37607 13.3287 9.37607 12.4999C9.37607 11.6711 9.70531 10.8763 10.2914 10.2902C10.8774 9.70415 11.6723 9.37492 12.5011 9.37492L12.5 9.37596ZM17.9688 5.73012C17.6327 5.74357 17.3149 5.88653 17.0819 6.12905C16.8489 6.37157 16.7188 6.69485 16.7188 7.03116C16.7188 7.36748 16.8489 7.69076 17.0819 7.93328C17.3149 8.1758 17.6327 8.31876 17.9688 8.33221C18.3141 8.33221 18.6453 8.19502 18.8895 7.95084C19.1337 7.70665 19.2709 7.37546 19.2709 7.03012C19.2709 6.68479 19.1337 6.3536 18.8895 6.10941C18.6453 5.86522 18.3141 5.72804 17.9688 5.72804V5.73012Z" fill="white"/>
</svg>
