<svg width="80" height="80" viewBox="0 0 80 80" fill="none" xmlns="http://www.w3.org/2000/svg">
<path fill-rule="evenodd" clip-rule="evenodd" d="M58.51 53.6866C59.24 53.3214 60.0787 53.2368 60.8669 53.4488C61.6552 53.6607 62.3383 54.1546 62.7867 54.8366L62.98 55.1766L69.6467 68.51C69.8845 68.9855 70.0052 69.5109 69.9986 70.0426C69.9921 70.5742 69.8584 71.0965 69.6088 71.566C69.3593 72.0354 69.001 72.4384 68.564 72.7412C68.127 73.044 67.6239 73.2379 67.0967 73.3066L66.6667 73.3333H13.3333C12.8016 73.3335 12.2775 73.2064 11.8048 72.9627C11.3322 72.7191 10.9247 72.3659 10.6164 71.9326C10.3081 71.4993 10.1079 70.9986 10.0325 70.4722C9.95722 69.9458 10.0089 69.409 10.1833 68.9066L10.35 68.5066L17.0167 55.1733C17.3903 54.4009 18.0474 53.8024 18.8512 53.5023C19.655 53.2021 20.5435 53.2235 21.332 53.5619C22.1204 53.9002 22.748 54.5296 23.0842 55.319C23.4203 56.1084 23.4391 56.997 23.1367 57.8L22.98 58.1566L18.7267 66.6666H61.2733L57.02 58.1566C56.6253 57.3662 56.5605 56.4514 56.8399 55.6133C57.1193 54.7751 57.72 54.0821 58.51 53.6866ZM40 6.66663C46.1884 6.66663 52.1233 9.12495 56.4992 13.5008C60.875 17.8766 63.3333 23.8116 63.3333 30C63.3333 37.94 59.0367 44.39 54.59 48.9666C52.1337 51.4614 49.4335 53.7037 46.53 55.66L45.2867 56.48L44.18 57.1766C44.0067 57.28 43.84 57.3766 43.6833 57.4766L42.8267 57.97C41.0667 58.97 38.9333 58.97 37.1733 57.97L36.3167 57.4733L35.2833 56.8433C35.0926 56.7233 34.9026 56.6022 34.7133 56.48L33.47 55.66C30.5665 53.7037 27.8663 51.4614 25.41 48.9666C20.9633 44.39 16.6667 37.94 16.6667 30C16.6667 23.8116 19.125 17.8766 23.5008 13.5008C27.8767 9.12495 33.8116 6.66663 40 6.66663ZM40 13.3333C35.5797 13.3333 31.3405 15.0892 28.2149 18.2148C25.0893 21.3405 23.3333 25.5797 23.3333 30C23.3333 35.4533 26.3 40.3166 30.19 44.32C32.5284 46.6849 35.1144 48.7915 37.9033 50.6033L39.0367 51.3266C39.3867 51.5433 39.71 51.7366 40 51.9066L40.9667 51.3266L42.0967 50.6033C44.8856 48.7915 47.4716 46.6849 49.81 44.32C53.7 40.32 56.6667 35.4533 56.6667 30C56.6667 25.5797 54.9107 21.3405 51.7851 18.2148C48.6595 15.0892 44.4203 13.3333 40 13.3333ZM40 20C42.6522 20 45.1957 21.0535 47.0711 22.9289C48.9464 24.8043 50 27.3478 50 30C50 32.6521 48.9464 35.1957 47.0711 37.071C45.1957 38.9464 42.6522 40 40 40C37.3478 40 34.8043 38.9464 32.9289 37.071C31.0536 35.1957 30 32.6521 30 30C30 27.3478 31.0536 24.8043 32.9289 22.9289C34.8043 21.0535 37.3478 20 40 20ZM40 26.6666C39.116 26.6666 38.2681 27.0178 37.643 27.6429C37.0179 28.2681 36.6667 29.1159 36.6667 30C36.6667 30.884 37.0179 31.7319 37.643 32.357C38.2681 32.9821 39.116 33.3333 40 33.3333C40.8841 33.3333 41.7319 32.9821 42.357 32.357C42.9822 31.7319 43.3333 30.884 43.3333 30C43.3333 29.1159 42.9822 28.2681 42.357 27.6429C41.7319 27.0178 40.8841 26.6666 40 26.6666Z" fill="#01AEE7"/>
</svg>
