<svg width="84" height="63" viewBox="0 0 84 63" fill="none" xmlns="http://www.w3.org/2000/svg">
<mask id="mask0_6_220" style="mask-type:luminance" maskUnits="userSpaceOnUse" x="0" y="0" width="84" height="63">
<path d="M2 39.5C2 38.395 2.42143 37.3352 3.17157 36.5538C3.92172 35.7724 4.93913 35.3334 6 35.3334H14V60.3334H6C4.93913 60.3334 3.92172 59.8944 3.17157 59.113C2.42143 58.3316 2 57.2718 2 56.1667V39.5ZM70 35.3334H78C79.0609 35.3334 80.0783 35.7724 80.8284 36.5538C81.5786 37.3352 82 38.395 82 39.5V56.1667C82 57.2718 81.5786 58.3316 80.8284 59.113C80.0783 59.8944 79.0609 60.3334 78 60.3334H70V35.3334Z" fill="white"/>
<path d="M14 56.1667V31.1667C14 15.0583 26.536 2 42 2C57.464 2 70 15.0583 70 31.1667V56.1667M14 35.3333H6C4.93913 35.3333 3.92172 35.7723 3.17157 36.5537C2.42143 37.3351 2 38.3949 2 39.5V56.1667C2 57.2717 2.42143 58.3315 3.17157 59.1129C3.92172 59.8943 4.93913 60.3333 6 60.3333H14V35.3333ZM70 35.3333H78C79.0609 35.3333 80.0783 35.7723 80.8284 36.5537C81.5786 37.3351 82 38.3949 82 39.5V56.1667C82 57.2717 81.5786 58.3315 80.8284 59.1129C80.0783 59.8943 79.0609 60.3333 78 60.3333H70V35.3333Z" stroke="white" stroke-width="4" stroke-linecap="round" stroke-linejoin="round"/>
<path d="M26 47.8334H34L38 35.3334L46 60.3334L50 47.8334H58" stroke="white" stroke-width="4" stroke-linecap="round" stroke-linejoin="round"/>
</mask>
<g mask="url(#mask0_6_220)">
<path d="M-6 -18.8334H90V81.1666H-6V-18.8334Z" fill="#01AEE7"/>
</g>
</svg>
