<svg width="80" height="78" viewBox="0 0 80 78" fill="none" xmlns="http://www.w3.org/2000/svg">
<path d="M62.5371 17.0286C66.1718 20.7604 68.8209 25.3379 70.2457 30.3486H80V47.4971H70.2457C68.8226 52.5119 66.1734 57.0935 62.5371 60.8286L67.4229 69.2857L52.5771 77.8571L47.7029 69.4C42.6487 70.6747 37.3571 70.6747 32.3029 69.4L27.4229 77.8571L12.5771 69.2857L17.4629 60.8286C13.8266 57.0935 11.1774 52.5119 9.75429 47.4971H0V30.3543H9.75429C11.1774 25.3395 13.8266 20.7579 17.4629 17.0229L12.5714 8.57143L27.4114 0H27.4286L32.3086 8.44571C37.3628 7.17098 42.6544 7.17098 47.7086 8.44571L52.5714 0H52.5829L67.4286 8.57143L62.5429 17.0286H62.5371ZM57.1429 38.9257C57.1429 34.3791 55.3367 30.0188 52.1218 26.8039C48.9069 23.589 44.5466 21.7829 40 21.7829C35.4534 21.7829 31.0931 23.589 27.8782 26.8039C24.6633 30.0188 22.8571 34.3791 22.8571 38.9257C22.8571 43.4723 24.6633 47.8326 27.8782 51.0475C31.0931 54.2624 35.4534 56.0686 40 56.0686C44.5466 56.0686 48.9069 54.2624 52.1218 51.0475C55.3367 47.8326 57.1429 43.4723 57.1429 38.9257Z" fill="#01AEE7"/>
</svg>
