<svg width="80" height="55" viewBox="0 0 80 55" fill="none" xmlns="http://www.w3.org/2000/svg">
<path d="M41.4251 4.04953e-05C35.3861 -0.0101376 27.8203 1.89825 20.3564 5.78289C12.9044 9.66753 6.99767 14.7566 3.53034 19.7269C0.061309 24.6802 -0.876771 29.2943 0.829755 32.5852C2.53798 35.8591 6.85688 37.7421 12.9111 37.7421C18.9654 37.759 26.5311 35.8422 33.9781 31.9745C41.442 28.0899 47.3453 22.9839 50.8059 18.0305C54.2834 13.0772 55.1994 8.46312 53.5031 5.1722C51.7897 1.89825 47.481 4.04953e-05 41.4251 4.04953e-05ZM57.0145 11.9237C56.4208 14.5191 55.1315 17.1823 53.3165 19.7778C49.4827 25.257 43.2232 30.6005 35.3861 34.6717C27.5489 38.7599 19.5931 40.8125 12.9094 40.8125C9.75424 40.8125 6.82974 40.3375 4.36494 39.3366L6.16138 42.7972C7.87129 46.0881 12.1783 47.9711 18.236 47.9711C24.2919 47.9711 31.8577 46.0712 39.3046 42.1865C46.7685 38.3188 52.6718 33.2128 56.1324 28.2425C59.5929 23.2892 60.5429 18.6751 58.8296 15.4012L57.0145 11.9237ZM61.9 14.7735C63.7999 19.3028 62.2732 24.8159 58.643 29.9898C55.4369 34.5869 50.5344 39.0483 44.4615 42.7802C46.3445 42.9838 48.3122 43.0856 50.3139 43.0856C58.7108 43.0856 66.3105 41.2874 71.6709 38.4885C77.0484 35.6895 80 32.0254 80 28.3274C80 24.6293 77.0484 20.9652 71.6709 18.1662C68.9398 16.7413 65.615 15.5708 61.9 14.7735ZM80 35.944C78.2697 37.9626 75.8948 39.7438 73.0959 41.2026C67.1586 44.29 59.1519 46.139 50.3139 46.139C46.7177 46.139 43.2571 45.8337 40.0171 45.2569C36.0816 47.2416 32.1291 48.7174 28.3292 49.6844C28.5328 49.8031 28.7364 49.9049 28.9569 50.0236C34.3174 52.8226 41.917 54.6207 50.3139 54.6207C58.7108 54.6207 66.3105 52.8226 71.6709 50.0236C77.0484 47.2247 80 43.5606 80 39.8625V35.944Z" fill="#01AEE7"/>
</svg>
