<svg width="80" height="79" viewBox="0 0 80 79" fill="none" xmlns="http://www.w3.org/2000/svg">
<path d="M72.1951 58.5366C74.2651 58.5366 76.2503 57.7143 77.714 56.2506C79.1777 54.7869 80 52.8017 80 50.7317V7.80488C80 5.7349 79.1777 3.74969 77.714 2.286C76.2503 0.822297 74.2651 0 72.1951 0H31.0634C32.4293 2.38049 33.1707 5.07317 33.1707 7.80488H72.1951V50.7317H37.0732V58.5366M52.6829 19.5122V27.3171H29.2683V78.0488H21.4634V54.6341H13.6585V78.0488H5.85366V46.8293H0V27.3171C0 25.2471 0.822297 23.2619 2.286 21.7982C3.74969 20.3345 5.7349 19.5122 7.80488 19.5122H52.6829ZM25.3659 7.80488C25.3659 9.87486 24.5436 11.8601 23.0799 13.3238C21.6162 14.7875 19.631 15.6098 17.561 15.6098C15.491 15.6098 13.5058 14.7875 12.0421 13.3238C10.5784 11.8601 9.7561 9.87486 9.7561 7.80488C9.7561 5.7349 10.5784 3.74969 12.0421 2.286C13.5058 0.822297 15.491 0 17.561 0C19.631 0 21.6162 0.822297 23.0799 2.286C24.5436 3.74969 25.3659 5.7349 25.3659 7.80488Z" fill="#01AEE7"/>
</svg>
