<svg width="80" height="80" viewBox="0 0 80 80" fill="none" xmlns="http://www.w3.org/2000/svg">
<path d="M17.5 10C14.6268 10 11.8713 11.1414 9.8397 13.173C7.80805 15.2047 6.66669 17.9602 6.66669 20.8333V50.8333C6.66669 53.7065 7.80805 56.462 9.8397 58.4937C11.8713 60.5253 14.6268 61.6667 17.5 61.6667H52.5C55.3732 61.6667 58.1287 60.5253 60.1603 58.4937C62.192 56.462 63.3334 53.7065 63.3334 50.8333V20.8333C63.3334 17.9602 62.192 15.2047 60.1603 13.173C58.1287 11.1414 55.3732 10 52.5 10H17.5ZM26.6667 44.1667V25.8367C26.6668 25.388 26.7877 24.9476 27.0167 24.5617C27.2457 24.1758 27.5743 23.8587 27.9681 23.6436C28.3619 23.4284 28.8063 23.3232 29.2547 23.339C29.7031 23.3548 30.139 23.491 30.5167 23.7333L45.91 33.5967C46.1454 33.7475 46.339 33.955 46.4731 34.2002C46.6073 34.4455 46.6776 34.7205 46.6776 35C46.6776 35.2795 46.6073 35.5545 46.4731 35.7998C46.339 36.045 46.1454 36.2525 45.91 36.4033L30.5167 46.2667C30.139 46.509 29.7031 46.6452 29.2547 46.661C28.8063 46.6768 28.3619 46.5716 27.9681 46.3564C27.5743 46.1413 27.2457 45.8242 27.0167 45.4383C26.7877 45.0524 26.6668 44.612 26.6667 44.1633V44.1667ZM25.8334 70C24.0134 70.0017 22.2223 69.5444 20.6259 68.6705C19.0295 67.7965 17.6792 66.5341 16.7 65H54.1667C57.4819 65 60.6613 63.683 63.0055 61.3388C65.3497 58.9946 66.6667 55.8152 66.6667 52.5V20.0333C68.2008 21.0126 69.4632 22.3628 70.3372 23.9592C71.2111 25.5557 71.6684 27.3467 71.6667 29.1667V52.5C71.6667 62.1667 63.8334 70 54.1667 70H25.8334Z" fill="#01AEE7"/>
</svg>
